<?xml version="1.0" standalone="no"?>
<!DOCTYPE svg PUBLIC "-//W3C//DTD SVG 20010904//EN"
 "http://www.w3.org/TR/2001/REC-SVG-20010904/DTD/svg10.dtd">
<svg version="1.0" xmlns="http://www.w3.org/2000/svg"
 width="192.000000pt" height="192.000000pt" viewBox="0 0 192.000000 192.000000"
 preserveAspectRatio="xMidYMid meet">

<g transform="translate(0.000000,192.000000) scale(0.100000,-0.100000)"
fill="#000000" stroke="none">
<path d="M537 1419 c-11 -40 -8 -579 3 -579 5 0 41 14 80 31 l69 31 3 148 3
147 133 -63 132 -63 168 78 c92 43 188 88 215 99 l47 21 0 79 c0 43 -3 81 -6
85 -4 3 -100 -41 -215 -99 l-209 -104 -209 104 c-190 95 -209 103 -214 85z"/>
<path d="M1305 1181 l-70 -36 -3 -142 c-1 -79 -4 -143 -5 -143 -2 0 -62 27
-135 60 l-132 59 -156 -70 c-86 -38 -183 -83 -215 -100 l-59 -29 0 -75 c0 -40
4 -76 8 -79 4 -2 101 40 215 94 l207 99 142 -68 c79 -38 172 -82 207 -100 36
-17 68 -31 73 -31 10 0 11 587 1 593 -5 3 -39 -12 -78 -32z"/>
</g>
</svg>
