<?xml version="1.0" standalone="no"?>
<!DOCTYPE svg PUBLIC "-//W3C//DTD SVG 20010904//EN"
 "http://www.w3.org/TR/2001/REC-SVG-20010904/DTD/svg10.dtd">
<svg version="1.0" xmlns="http://www.w3.org/2000/svg"
 width="192.000000pt" height="192.000000pt" viewBox="0 0 192.000000 192.000000"
 preserveAspectRatio="xMidYMid meet">
<metadata>
Created by potrace 1.14, written by Peter Selinger 2001-2017
</metadata>
<g transform="translate(0.000000,192.000000) scale(0.100000,-0.100000)"
fill="#000000" stroke="none">
<path d="M535 1139 c0 -165 3 -299 7 -299 8 0 69 26 125 52 21 11 22 16 21
152 0 81 4 142 9 143 5 2 67 -23 137 -56 l127 -61 147 69 c81 38 177 82 213
99 l66 30 -2 84 c-1 60 -5 82 -14 80 -7 -1 -98 -45 -203 -97 -106 -52 -199
-95 -207 -95 -9 0 -99 41 -201 91 -102 50 -194 95 -205 99 -20 8 -20 4 -20
-291z"/>
<path d="M1300 1181 l-65 -36 -2 -139 c-1 -76 -3 -139 -5 -141 -2 -2 -30 10
-63 25 -33 16 -63 29 -67 30 -4 0 -36 14 -73 31 l-66 30 -64 -30 c-36 -17 -68
-31 -73 -31 -4 0 -70 -31 -147 -69 l-140 -68 -1 -81 c0 -45 0 -82 2 -82 7 0
93 40 247 114 l178 86 62 -32 c34 -18 64 -32 67 -33 3 0 50 -23 105 -49 55
-27 120 -58 145 -70 l46 -22 -1 300 c0 191 -4 300 -10 302 -5 1 -39 -15 -75
-35z"/>
</g>
</svg>
